<svg id="Capa_1" enable-background="new 0 0 512 512" height="512" viewBox="0 0 512 512" width="512" xmlns="http://www.w3.org/2000/svg" xmlns:xlink="http://www.w3.org/1999/xlink"><linearGradient id="SVGID_1_" gradientUnits="userSpaceOnUse" x1="25.607" x2="454.821" y1="486.393" y2="57.179"><stop offset="0" stop-color="#5558ff"/><stop offset="1" stop-color="#00c0ff"/></linearGradient><g><g><g><path d="m317 0c-107.523 0-195 87.477-195 195 0 48.374 17.712 92.684 46.983 126.803l-16.983 16.983-10.606-10.607c-2.813-2.813-6.628-4.394-10.606-4.394s-7.794 1.58-10.606 4.394l-115.788 115.788c-2.814 2.813-4.394 6.628-4.394 10.606s1.58 7.794 4.394 10.607l42.427 42.427c2.812 2.813 6.627 4.393 10.606 4.393s7.794-1.58 10.606-4.394l115.786-115.786c5.858-5.858 5.858-15.355 0-21.213l-10.606-10.607 16.984-16.984c34.118 29.271 78.429 46.984 126.803 46.984 107.523 0 195-87.477 195-195s-87.477-195-195-195zm-259.573 475.787-21.214-21.213 94.574-94.574 21.213 21.213zm259.573-115.787c-90.981 0-165-74.019-165-165s74.019-165 165-165 165 74.019 165 165-74.019 165-165 165zm0-300c-74.439 0-135 60.561-135 135s60.561 135 135 135 135-60.561 135-135-60.561-135-135-135zm0 240c-57.897 0-105-47.103-105-105s47.103-105 105-105 105 47.103 105 105-47.103 105-105 105z" fill="url(#SVGID_1_)"/></g></g></g></svg>