<svg viewBox="-69 0 512 512.001" xmlns="http://www.w3.org/2000/svg"><path d="m353.640625 504.5h-333.042969c-7.234375 0-13.097656-5.863281-13.097656-13.097656v-420.382813c0-7.234375 5.863281-13.097656 13.097656-13.097656h333.042969c7.234375 0 13.101563 5.863281 13.101563 13.097656v420.382813c0 7.234375-5.867188 13.097656-13.101563 13.097656zm0 0" fill="#fa9f6a"/><path d="m44.964844 491.402344v-420.382813c0-7.234375 5.863281-13.097656 13.097656-13.097656h-37.464844c-7.234375 0-13.097656 5.863281-13.097656 13.097656v420.382813c0 7.234375 5.863281 13.097656 13.097656 13.097656h37.464844c-7.234375 0-13.097656-5.863281-13.097656-13.097656zm0 0" fill="#eb8f59"/><path d="m44.964844 455.597656v-348.773437c0-6.316407 5.121094-11.4375 11.4375-11.4375h261.433594c6.320312 0 11.441406 5.121093 11.441406 11.4375v250.175781l-110.035156 110.035156h-162.839844c-6.316406 0-11.4375-5.121094-11.4375-11.4375zm0 0" fill="#efedee"/><path d="m74.964844 455.597656v-348.773437c0-6.316407 5.121094-11.4375 11.4375-11.4375h-30c-6.316406 0-11.4375 5.121093-11.4375 11.4375v348.773437c0 6.316406 5.121094 11.4375 11.4375 11.4375h30c-6.316406 0-11.4375-5.121094-11.4375-11.4375zm0 0" fill="#d9d7d8"/><path d="m257.230469 40.519531h-37.640625c0-18.238281-14.785156-33.019531-33.019532-33.019531-18.234374 0-33.019531 14.785156-33.019531 33.019531h-37.640625c-6.28125 0-11.371094 5.09375-11.371094 11.371094v49.523437c0 6.28125 5.089844 11.371094 11.371094 11.371094h141.320313c6.28125 0 11.371093-5.089844 11.371093-11.371094v-49.523437c0-6.277344-5.089843-11.371094-11.371093-11.371094zm-70.660157 9.734375c-5.375 0-9.734374-4.359375-9.734374-9.734375s4.359374-9.730469 9.734374-9.730469 9.730469 4.355469 9.730469 9.730469-4.355469 9.734375-9.730469 9.734375zm0 0" fill="#fadc60"/><path d="m134.539062 101.414062v-49.523437c0-6.28125 5.089844-11.371094 11.371094-11.371094h-30c-6.28125 0-11.371094 5.089844-11.371094 11.371094v49.523437c0 6.28125 5.089844 11.371094 11.371094 11.371094h30c-6.28125.003906-11.371094-5.089844-11.371094-11.371094zm0 0" fill="#e6cb59"/><path d="m230.679688 357h98.597656l-110.035156 110.035156v-98.59375c0-6.320312 5.121093-11.441406 11.4375-11.441406zm0 0" fill="#d9d7d8"/><path d="m187.121094 260.917969c-9.5 0-17.199219-7.699219-17.199219-17.199219v-12.898438h34.398437v12.898438c0 9.5-7.699218 17.199219-17.199218 17.199219zm0 0" fill="#464c51"/><path d="m256.488281 260.605469h-11.355469c-4.140624 0-7.5-3.355469-7.5-7.5 0-4.140625 3.359376-7.5 7.5-7.5h11.355469c4.140625 0 7.5 3.359375 7.5 7.5 0 4.144531-3.359375 7.5-7.5 7.5zm0 0" fill="#fd6f71"/><path d="m129.109375 260.605469h-11.355469c-4.140625 0-7.5-3.355469-7.5-7.5 0-4.140625 3.359375-7.5 7.5-7.5h11.355469c4.140625 0 7.5 3.359375 7.5 7.5 0 4.144531-3.359375 7.5-7.5 7.5zm0 0" fill="#fd6f71"/><path d="m353.640625 50.421875h-77.613281c-.753906-9.71875-8.886719-17.402344-18.796875-17.402344h-30.835938c-3.527343-18.769531-20.042969-33.019531-39.824219-33.019531s-36.296874 14.25-39.824218 33.019531h-30.835938c-9.910156 0-18.042968 7.683594-18.796875 17.402344h-76.515625c-11.355468 0-20.597656 9.242187-20.597656 20.597656v420.382813c0 11.359375 9.242188 20.597656 20.597656 20.597656h333.042969c11.359375 0 20.601563-9.238281 20.601563-20.597656v-420.382813c0-11.355469-9.242188-20.597656-20.601563-20.597656zm-237.730469-2.402344h37.640625c4.140625 0 7.5-3.355469 7.5-7.5 0-14.070312 11.445313-25.519531 25.519531-25.519531 14.070313 0 25.519532 11.449219 25.519532 25.519531 0 4.144531 3.359375 7.5 7.5 7.5h37.640625c2.132812 0 3.871093 1.738281 3.871093 3.875v6.019531.011719.007813 37.445312.007813.011719 6.019531c0 2.136719-1.734374 3.871093-3.871093 3.871093h-9.988281c-4.144532 0-7.5 3.359376-7.5 7.5 0 4.144532 3.355468 7.5 7.5 7.5h9.988281c9.910156 0 18.042969-7.683593 18.796875-17.402343h41.808594c2.175781 0 3.941406 1.769531 3.941406 3.941406v242.671875h-91.097656c-10.441407 0-18.9375 8.496094-18.9375 18.941406v91.09375h-155.339844c-2.171875 0-3.9375-1.765625-3.9375-3.9375v-348.773437c0-2.171875 1.765625-3.9375 3.9375-3.9375h40.710937c.753907 9.71875 8.886719 17.402343 18.796875 17.402343h103.332032c4.140624 0 7.5-3.359374 7.5-7.5 0-4.144531-3.359376-7.5-7.5-7.5h-103.332032c-2.132812 0-3.871094-1.738281-3.871094-3.875v-6.007812c0-.007812 0-.015625 0-.019531 0-.007813 0-.015625 0-.019531v-37.433594c0-.003906 0-.007813 0-.011719s0-.003906 0-.007813v-6.023437c0-2.132813 1.738282-3.871094 3.871094-3.871094zm110.832032 400.910157v-80.488282c0-2.171875 1.765624-3.941406 3.9375-3.941406h80.492187zm132.5 42.472656c0 3.085937-2.511719 5.597656-5.601563 5.597656h-333.042969c-3.085937 0-5.597656-2.511719-5.597656-5.597656v-420.382813c0-3.085937 2.511719-5.597656 5.597656-5.597656h76.441406v22.464844h-40.636718c-10.441406 0-18.9375 8.496093-18.9375 18.9375v348.773437c0 10.441406 8.496094 18.9375 18.9375 18.9375h162.839844c.015624 0 .035156-.003906.050781-.003906.230469 0 .460937-.011719.6875-.035156.160156-.015625.320312-.042969.480469-.066406.078124-.015626.160156-.023438.242187-.039063.183594-.035156.363281-.085937.542969-.132813.054687-.015624.109375-.027343.164062-.042968.183594-.054688.359375-.121094.535156-.1875.050782-.019532.105469-.039063.15625-.058594.167969-.070312.332032-.148438.492188-.230469.058594-.027343.117188-.054687.175781-.082031.152344-.082031.296875-.171875.441407-.265625.0625-.039063.128906-.074219.191406-.113281.144531-.097656.285156-.207032.421875-.3125.058593-.042969.117187-.082032.171875-.128906.191406-.15625.375-.324219.550781-.5l110.035156-110.03125v-.003907c.238281-.234375.449219-.492187.652344-.757812.046875-.058594.089844-.117188.132813-.179688.191406-.265625.371093-.542969.527343-.832031.011719-.019531.019531-.042969.027344-.0625.144531-.273438.269531-.5625.378906-.855469.023438-.058593.042969-.121093.066407-.179687.105468-.3125.199218-.632813.265624-.960938 0-.011718.003907-.027344.003907-.039062.058593-.300782.09375-.609375.117187-.921875.003906-.085938.007813-.171875.011719-.261719.003906-.082031.015625-.164062.015625-.25v-250.175781c0-10.441407-8.5-18.9375-18.941406-18.9375h-41.734375v-22.464844h77.539062c3.085938 0 5.597657 2.511719 5.597657 5.597656zm0 0"/><path d="m142.574219 215.003906c-3.59375-2.066406-8.175781-.828125-10.242188 2.765625-1.828125 3.179688-5.238281 5.15625-8.902343 5.15625-3.660157 0-7.070313-1.980469-8.898438-5.160156-2.066406-3.589844-6.652344-4.828125-10.242188-2.761719-3.589843 2.0625-4.828124 6.644532-2.765624 10.238282 4.5 7.820312 12.890624 12.683593 21.90625 12.683593 9.019531 0 17.410156-4.859375 21.90625-12.683593 2.066406-3.589844.828124-8.175782-2.761719-10.238282zm0 0"/><path d="m250.808594 237.925781c9.015625 0 17.410156-4.859375 21.90625-12.683593 2.066406-3.589844.828125-8.175782-2.765625-10.238282-3.589844-2.066406-8.175781-.828125-10.238281 2.765625-1.828126 3.179688-5.238282 5.15625-8.902344 5.15625-3.660156 0-7.070313-1.980469-8.898438-5.160156-2.066406-3.589844-6.652344-4.828125-10.242187-2.761719-3.589844 2.0625-4.828125 6.644532-2.765625 10.238282 4.5 7.820312 12.890625 12.683593 21.90625 12.683593zm0 0"/><path d="m204.320312 223.320312h-34.398437c-4.140625 0-7.5 3.359376-7.5 7.5v12.898438c0 13.621094 11.082031 24.699219 24.699219 24.699219 13.621094 0 24.699218-11.078125 24.699218-24.699219v-12.898438c0-4.140624-3.359374-7.5-7.5-7.5zm-7.5 20.398438c0 5.351562-4.351562 9.699219-9.699218 9.699219s-9.699219-4.351563-9.699219-9.699219v-5.398438h19.398437zm0 0"/><path d="m186.570312 57.753906c9.5 0 17.230469-7.730468 17.230469-17.234375 0-9.5-7.726562-17.230469-17.230469-17.230469-9.5 0-17.230468 7.730469-17.230468 17.230469-.003906 9.5 7.730468 17.234375 17.230468 17.234375zm0-19.464844c1.230469 0 2.230469 1 2.230469 2.230469s-1 2.230469-2.230469 2.230469c-1.230468 0-2.230468-1-2.230468-2.230469-.003906-1.230469 1-2.230469 2.230468-2.230469zm0 0"/></svg>